<svg xmlns="http://www.w3.org/2000/svg" xmlns:xlink="http://www.w3.org/1999/xlink" width="1024" zoomAndPan="magnify" viewBox="0 0 768 767.999994" height="1024" preserveAspectRatio="xMidYMid meet" version="1.0"><defs><clipPath id="5dd3a8abda"><path d="M 204.371094 211.902344 L 511.871094 211.902344 L 511.871094 448 L 204.371094 448 Z M 204.371094 211.902344 " clip-rule="nonzero"/></clipPath><clipPath id="8ae38514b4"><path d="M 276 457 L 338 457 L 338 519.402344 L 276 519.402344 Z M 276 457 " clip-rule="nonzero"/></clipPath><clipPath id="4b07270d35"><path d="M 399 457 L 461 457 L 461 519.402344 L 399 519.402344 Z M 399 457 " clip-rule="nonzero"/></clipPath><clipPath id="e13ef8c8c9"><path d="M 357.964844 295.476562 L 410.023438 295.476562 L 410.023438 355 L 357.964844 355 Z M 357.964844 295.476562 " clip-rule="nonzero"/></clipPath><clipPath id="df4361564c"><path d="M 410.023438 325.222656 L 357.964844 354.96875 L 357.964844 295.476562 Z M 410.023438 325.222656 " clip-rule="nonzero"/></clipPath></defs><g clip-path="url(#5dd3a8abda)"><path fill="#000000" d="M 286.371094 406.652344 L 443.730469 406.652344 C 444.972656 406.65625 446.214844 406.609375 447.457031 406.507812 C 448.695312 406.40625 449.929688 406.253906 451.15625 406.050781 C 452.382812 405.84375 453.601562 405.589844 454.804688 405.28125 C 456.011719 404.972656 457.203125 404.613281 458.378906 404.207031 C 459.554688 403.796875 460.707031 403.339844 461.84375 402.835938 C 462.980469 402.328125 464.09375 401.777344 465.1875 401.175781 C 466.277344 400.578125 467.339844 399.933594 468.375 399.242188 C 469.410156 398.550781 470.414062 397.820312 471.386719 397.046875 C 472.359375 396.269531 473.300781 395.457031 474.207031 394.601562 C 475.109375 393.75 475.976562 392.859375 476.808594 391.929688 C 477.636719 391.003906 478.425781 390.042969 479.175781 389.046875 C 479.921875 388.054688 480.628906 387.03125 481.289062 385.976562 C 481.953125 384.925781 482.566406 383.84375 483.136719 382.738281 C 483.707031 381.632812 484.230469 380.503906 484.707031 379.355469 C 485.183594 378.207031 485.609375 377.039062 485.984375 375.851562 C 486.363281 374.667969 486.6875 373.46875 486.964844 372.253906 L 511.613281 265.457031 C 511.703125 265.085938 511.765625 264.707031 511.8125 264.324219 C 511.855469 263.941406 511.878906 263.558594 511.878906 263.175781 C 511.878906 262.789062 511.859375 262.40625 511.816406 262.023438 C 511.773438 261.640625 511.710938 261.265625 511.625 260.890625 C 511.539062 260.515625 511.433594 260.144531 511.308594 259.78125 C 511.179688 259.417969 511.035156 259.0625 510.867188 258.71875 C 510.703125 258.371094 510.515625 258.035156 510.3125 257.710938 C 510.109375 257.382812 509.886719 257.070312 509.648438 256.769531 C 509.410156 256.46875 509.152344 256.183594 508.882812 255.910156 C 508.609375 255.636719 508.324219 255.382812 508.023438 255.140625 C 507.722656 254.902344 507.410156 254.679688 507.085938 254.476562 C 506.757812 254.269531 506.421875 254.085938 506.078125 253.917969 C 505.730469 253.75 505.375 253.605469 505.011719 253.476562 C 504.648438 253.351562 504.28125 253.246094 503.90625 253.160156 C 503.53125 253.074219 503.152344 253.007812 502.769531 252.964844 C 502.390625 252.921875 502.003906 252.902344 501.621094 252.902344 L 263.132812 252.902344 L 255.355469 219.804688 C 255.222656 219.246094 255.046875 218.703125 254.824219 218.175781 C 254.601562 217.644531 254.335938 217.140625 254.027344 216.65625 C 253.71875 216.171875 253.375 215.714844 252.988281 215.289062 C 252.605469 214.863281 252.1875 214.472656 251.738281 214.117188 C 251.289062 213.757812 250.8125 213.445312 250.308594 213.167969 C 249.808594 212.890625 249.285156 212.660156 248.742188 212.46875 C 248.199219 212.28125 247.648438 212.140625 247.082031 212.046875 C 246.515625 211.949219 245.945312 211.902344 245.371094 211.902344 L 214.621094 211.902344 C 213.949219 211.902344 213.28125 211.96875 212.621094 212.097656 C 211.960938 212.230469 211.320312 212.425781 210.699219 212.683594 C 210.078125 212.941406 209.488281 213.257812 208.925781 213.628906 C 208.367188 214.003906 207.847656 214.429688 207.375 214.90625 C 206.898438 215.378906 206.472656 215.898438 206.097656 216.457031 C 205.726562 217.015625 205.410156 217.609375 205.152344 218.230469 C 204.894531 218.851562 204.699219 219.492188 204.570312 220.152344 C 204.4375 220.8125 204.371094 221.480469 204.371094 222.152344 C 204.371094 222.824219 204.4375 223.492188 204.570312 224.152344 C 204.699219 224.8125 204.894531 225.453125 205.152344 226.074219 C 205.410156 226.695312 205.726562 227.289062 206.097656 227.847656 C 206.472656 228.40625 206.898438 228.925781 207.375 229.398438 C 207.847656 229.875 208.367188 230.300781 208.925781 230.675781 C 209.488281 231.050781 210.078125 231.363281 210.699219 231.621094 C 211.320312 231.878906 211.960938 232.074219 212.621094 232.207031 C 213.28125 232.335938 213.949219 232.402344 214.621094 232.402344 L 237.253906 232.402344 L 274.070312 388.777344 C 273.273438 389.128906 272.492188 389.515625 271.726562 389.933594 C 270.960938 390.351562 270.214844 390.804688 269.488281 391.285156 C 268.761719 391.769531 268.058594 392.28125 267.375 392.824219 C 266.691406 393.367188 266.035156 393.9375 265.398438 394.535156 C 264.765625 395.132812 264.15625 395.757812 263.574219 396.40625 C 262.996094 397.058594 262.441406 397.730469 261.917969 398.429688 C 261.394531 399.125 260.902344 399.84375 260.4375 400.582031 C 259.976562 401.324219 259.542969 402.082031 259.144531 402.855469 C 258.746094 403.632812 258.382812 404.425781 258.050781 405.230469 C 257.71875 406.039062 257.425781 406.855469 257.164062 407.6875 C 256.902344 408.523438 256.675781 409.363281 256.488281 410.214844 C 256.296875 411.066406 256.144531 411.921875 256.027344 412.789062 C 255.910156 413.652344 255.832031 414.519531 255.789062 415.390625 C 255.746094 416.261719 255.738281 417.132812 255.769531 418.003906 C 255.800781 418.878906 255.871094 419.746094 255.976562 420.613281 C 256.078125 421.476562 256.222656 422.335938 256.398438 423.191406 C 256.578125 424.042969 256.792969 424.890625 257.042969 425.726562 C 257.292969 426.558594 257.578125 427.382812 257.898438 428.195312 C 258.21875 429.007812 258.574219 429.800781 258.960938 430.582031 C 259.347656 431.363281 259.769531 432.128906 260.222656 432.875 C 260.675781 433.617188 261.160156 434.34375 261.675781 435.046875 C 262.1875 435.75 262.734375 436.433594 263.304688 437.089844 C 263.878906 437.75 264.476562 438.382812 265.105469 438.988281 C 265.730469 439.59375 266.382812 440.175781 267.058594 440.726562 C 267.734375 441.277344 268.429688 441.796875 269.152344 442.289062 C 269.871094 442.78125 270.609375 443.242188 271.371094 443.671875 C 272.128906 444.101562 272.90625 444.5 273.699219 444.859375 C 274.492188 445.222656 275.296875 445.554688 276.121094 445.847656 C 276.941406 446.140625 277.773438 446.402344 278.617188 446.625 C 279.457031 446.847656 280.308594 447.035156 281.167969 447.1875 C 282.027344 447.339844 282.890625 447.453125 283.761719 447.53125 C 284.628906 447.609375 285.5 447.648438 286.371094 447.652344 L 481.121094 447.652344 C 481.792969 447.652344 482.460938 447.585938 483.121094 447.457031 C 483.78125 447.324219 484.421875 447.128906 485.042969 446.871094 C 485.664062 446.613281 486.257812 446.300781 486.816406 445.925781 C 487.375 445.550781 487.894531 445.125 488.371094 444.648438 C 488.84375 444.175781 489.269531 443.65625 489.644531 443.097656 C 490.019531 442.539062 490.332031 441.945312 490.589844 441.324219 C 490.847656 440.703125 491.042969 440.0625 491.175781 439.402344 C 491.304688 438.742188 491.371094 438.074219 491.371094 437.402344 C 491.371094 436.730469 491.304688 436.0625 491.175781 435.402344 C 491.042969 434.742188 490.847656 434.101562 490.589844 433.480469 C 490.332031 432.859375 490.019531 432.265625 489.644531 431.707031 C 489.269531 431.148438 488.84375 430.628906 488.371094 430.15625 C 487.894531 429.679688 487.375 429.253906 486.816406 428.878906 C 486.257812 428.507812 485.664062 428.191406 485.042969 427.933594 C 484.421875 427.675781 483.78125 427.480469 483.121094 427.347656 C 482.460938 427.21875 481.792969 427.152344 481.121094 427.152344 L 286.371094 427.152344 C 285.699219 427.152344 285.03125 427.085938 284.371094 426.957031 C 283.710938 426.824219 283.070312 426.628906 282.449219 426.371094 C 281.828125 426.113281 281.238281 425.800781 280.675781 425.425781 C 280.117188 425.050781 279.597656 424.625 279.125 424.148438 C 278.648438 423.675781 278.222656 423.15625 277.847656 422.597656 C 277.476562 422.039062 277.160156 421.445312 276.902344 420.824219 C 276.644531 420.203125 276.449219 419.5625 276.320312 418.902344 C 276.1875 418.242188 276.121094 417.574219 276.121094 416.902344 C 276.121094 416.230469 276.1875 415.5625 276.316406 414.902344 C 276.449219 414.242188 276.644531 413.601562 276.902344 412.980469 C 277.160156 412.359375 277.476562 411.765625 277.847656 411.207031 C 278.222656 410.648438 278.648438 410.128906 279.125 409.65625 C 279.597656 409.179688 280.117188 408.753906 280.675781 408.378906 C 281.238281 408.007812 281.828125 407.691406 282.449219 407.433594 C 283.070312 407.175781 283.710938 406.980469 284.371094 406.847656 C 285.03125 406.71875 285.699219 406.652344 286.371094 406.652344 Z M 488.738281 273.402344 L 466.988281 367.640625 C 466.691406 368.949219 466.285156 370.222656 465.773438 371.464844 C 465.261719 372.703125 464.652344 373.890625 463.9375 375.027344 C 463.226562 376.164062 462.421875 377.230469 461.527344 378.230469 C 460.632812 379.230469 459.660156 380.148438 458.613281 380.984375 C 457.5625 381.820312 456.449219 382.5625 455.273438 383.207031 C 454.101562 383.855469 452.878906 384.398438 451.613281 384.839844 C 450.34375 385.277344 449.050781 385.609375 447.726562 385.828125 C 446.402344 386.050781 445.070312 386.15625 443.730469 386.152344 L 294.488281 386.152344 L 267.921875 273.402344 Z M 488.738281 273.402344 " fill-opacity="1" fill-rule="nonzero"/></g><g clip-path="url(#8ae38514b4)"><path fill="#000000" d="M 306.871094 457.902344 C 305.863281 457.902344 304.859375 457.953125 303.855469 458.050781 C 302.855469 458.148438 301.859375 458.296875 300.871094 458.492188 C 299.882812 458.691406 298.910156 458.933594 297.945312 459.226562 C 296.980469 459.519531 296.035156 459.859375 295.105469 460.242188 C 294.171875 460.628906 293.265625 461.058594 292.375 461.535156 C 291.488281 462.007812 290.625 462.523438 289.789062 463.085938 C 288.949219 463.644531 288.140625 464.242188 287.363281 464.882812 C 286.585938 465.519531 285.839844 466.195312 285.128906 466.910156 C 284.414062 467.621094 283.742188 468.367188 283.101562 469.144531 C 282.460938 469.921875 281.863281 470.730469 281.304688 471.570312 C 280.746094 472.40625 280.226562 473.269531 279.753906 474.15625 C 279.277344 475.046875 278.847656 475.953125 278.460938 476.886719 C 278.078125 477.816406 277.738281 478.761719 277.445312 479.726562 C 277.152344 480.691406 276.910156 481.664062 276.710938 482.652344 C 276.515625 483.640625 276.367188 484.636719 276.269531 485.636719 C 276.171875 486.640625 276.121094 487.644531 276.121094 488.652344 C 276.121094 489.660156 276.171875 490.664062 276.269531 491.667969 C 276.367188 492.667969 276.515625 493.664062 276.710938 494.652344 C 276.910156 495.640625 277.152344 496.613281 277.445312 497.578125 C 277.738281 498.542969 278.078125 499.488281 278.460938 500.417969 C 278.847656 501.351562 279.277344 502.257812 279.753906 503.148438 C 280.226562 504.035156 280.746094 504.898438 281.304688 505.734375 C 281.863281 506.574219 282.460938 507.382812 283.101562 508.160156 C 283.742188 508.9375 284.414062 509.683594 285.128906 510.394531 C 285.839844 511.109375 286.585938 511.785156 287.363281 512.421875 C 288.140625 513.0625 288.949219 513.660156 289.789062 514.21875 C 290.625 514.78125 291.488281 515.296875 292.375 515.773438 C 293.265625 516.246094 294.171875 516.675781 295.105469 517.0625 C 296.035156 517.445312 296.980469 517.785156 297.945312 518.078125 C 298.910156 518.371094 299.882812 518.613281 300.871094 518.8125 C 301.859375 519.007812 302.855469 519.15625 303.855469 519.253906 C 304.859375 519.351562 305.863281 519.402344 306.871094 519.402344 C 307.878906 519.402344 308.882812 519.351562 309.886719 519.253906 C 310.886719 519.15625 311.882812 519.007812 312.871094 518.8125 C 313.859375 518.613281 314.832031 518.371094 315.796875 518.078125 C 316.761719 517.785156 317.707031 517.445312 318.640625 517.0625 C 319.570312 516.675781 320.480469 516.246094 321.367188 515.773438 C 322.253906 515.296875 323.117188 514.78125 323.957031 514.21875 C 324.792969 513.660156 325.601562 513.0625 326.378906 512.421875 C 327.15625 511.785156 327.902344 511.109375 328.613281 510.394531 C 329.328125 509.683594 330.003906 508.9375 330.640625 508.160156 C 331.28125 507.382812 331.878906 506.574219 332.4375 505.734375 C 333 504.898438 333.515625 504.035156 333.992188 503.148438 C 334.464844 502.257812 334.894531 501.351562 335.28125 500.417969 C 335.667969 499.488281 336.003906 498.542969 336.296875 497.578125 C 336.589844 496.613281 336.835938 495.640625 337.03125 494.652344 C 337.226562 493.664062 337.375 492.667969 337.472656 491.667969 C 337.570312 490.664062 337.621094 489.660156 337.621094 488.652344 C 337.621094 487.644531 337.570312 486.640625 337.472656 485.636719 C 337.375 484.636719 337.226562 483.640625 337.03125 482.652344 C 336.835938 481.664062 336.589844 480.691406 336.296875 479.726562 C 336.003906 478.761719 335.667969 477.816406 335.28125 476.886719 C 334.894531 475.953125 334.464844 475.046875 333.992188 474.15625 C 333.515625 473.269531 333 472.40625 332.4375 471.570312 C 331.878906 470.730469 331.28125 469.921875 330.640625 469.144531 C 330.003906 468.367188 329.328125 467.621094 328.613281 466.910156 C 327.902344 466.195312 327.15625 465.519531 326.378906 464.882812 C 325.601562 464.242188 324.792969 463.644531 323.957031 463.085938 C 323.117188 462.523438 322.253906 462.007812 321.367188 461.535156 C 320.480469 461.058594 319.570312 460.628906 318.640625 460.242188 C 317.707031 459.859375 316.761719 459.519531 315.796875 459.226562 C 314.832031 458.933594 313.859375 458.691406 312.871094 458.492188 C 311.882812 458.296875 310.886719 458.148438 309.886719 458.050781 C 308.882812 457.953125 307.878906 457.902344 306.871094 457.902344 Z M 306.871094 498.902344 C 306.199219 498.902344 305.53125 498.835938 304.871094 498.707031 C 304.210938 498.574219 303.570312 498.378906 302.949219 498.121094 C 302.328125 497.863281 301.738281 497.550781 301.175781 497.175781 C 300.617188 496.800781 300.097656 496.375 299.625 495.898438 C 299.148438 495.425781 298.722656 494.90625 298.347656 494.347656 C 297.976562 493.789062 297.660156 493.195312 297.402344 492.574219 C 297.144531 491.953125 296.949219 491.3125 296.816406 490.652344 C 296.6875 489.992188 296.621094 489.324219 296.621094 488.652344 C 296.621094 487.980469 296.6875 487.3125 296.816406 486.652344 C 296.949219 485.992188 297.144531 485.351562 297.402344 484.730469 C 297.660156 484.109375 297.976562 483.515625 298.347656 482.957031 C 298.722656 482.398438 299.148438 481.878906 299.625 481.40625 C 300.097656 480.929688 300.617188 480.503906 301.175781 480.128906 C 301.738281 479.757812 302.328125 479.441406 302.949219 479.183594 C 303.570312 478.925781 304.210938 478.730469 304.871094 478.597656 C 305.53125 478.46875 306.199219 478.402344 306.871094 478.402344 C 307.542969 478.402344 308.210938 478.46875 308.871094 478.597656 C 309.53125 478.730469 310.171875 478.925781 310.792969 479.183594 C 311.414062 479.441406 312.007812 479.757812 312.566406 480.128906 C 313.125 480.503906 313.644531 480.929688 314.121094 481.40625 C 314.59375 481.878906 315.019531 482.398438 315.394531 482.957031 C 315.769531 483.515625 316.082031 484.109375 316.339844 484.730469 C 316.597656 485.351562 316.792969 485.992188 316.925781 486.652344 C 317.054688 487.3125 317.121094 487.980469 317.121094 488.652344 C 317.121094 489.324219 317.054688 489.992188 316.925781 490.652344 C 316.792969 491.3125 316.597656 491.953125 316.339844 492.574219 C 316.082031 493.195312 315.769531 493.789062 315.394531 494.347656 C 315.019531 494.90625 314.59375 495.425781 314.121094 495.898438 C 313.644531 496.375 313.125 496.800781 312.566406 497.175781 C 312.007812 497.550781 311.414062 497.863281 310.792969 498.121094 C 310.171875 498.378906 309.53125 498.574219 308.871094 498.707031 C 308.210938 498.835938 307.542969 498.902344 306.871094 498.902344 Z M 306.871094 498.902344 " fill-opacity="1" fill-rule="nonzero"/></g><g clip-path="url(#4b07270d35)"><path fill="#000000" d="M 429.871094 457.902344 C 428.863281 457.902344 427.859375 457.953125 426.855469 458.050781 C 425.855469 458.148438 424.859375 458.296875 423.871094 458.492188 C 422.882812 458.691406 421.910156 458.933594 420.945312 459.226562 C 419.980469 459.519531 419.035156 459.859375 418.105469 460.242188 C 417.171875 460.628906 416.265625 461.058594 415.375 461.535156 C 414.488281 462.007812 413.625 462.523438 412.789062 463.085938 C 411.949219 463.644531 411.140625 464.242188 410.363281 464.882812 C 409.585938 465.519531 408.839844 466.195312 408.128906 466.910156 C 407.414062 467.621094 406.738281 468.367188 406.101562 469.144531 C 405.460938 469.921875 404.863281 470.730469 404.304688 471.570312 C 403.746094 472.40625 403.226562 473.269531 402.753906 474.15625 C 402.277344 475.046875 401.847656 475.953125 401.460938 476.886719 C 401.078125 477.816406 400.738281 478.761719 400.445312 479.726562 C 400.152344 480.691406 399.910156 481.664062 399.710938 482.652344 C 399.515625 483.640625 399.367188 484.636719 399.269531 485.636719 C 399.171875 486.640625 399.121094 487.644531 399.121094 488.652344 C 399.121094 489.660156 399.171875 490.664062 399.269531 491.667969 C 399.367188 492.667969 399.515625 493.664062 399.710938 494.652344 C 399.910156 495.640625 400.152344 496.613281 400.445312 497.578125 C 400.738281 498.542969 401.078125 499.488281 401.460938 500.417969 C 401.847656 501.351562 402.277344 502.257812 402.753906 503.148438 C 403.226562 504.035156 403.746094 504.898438 404.304688 505.734375 C 404.863281 506.574219 405.460938 507.382812 406.101562 508.160156 C 406.738281 508.9375 407.414062 509.683594 408.128906 510.394531 C 408.839844 511.109375 409.585938 511.785156 410.363281 512.421875 C 411.140625 513.0625 411.949219 513.660156 412.789062 514.21875 C 413.625 514.78125 414.488281 515.296875 415.375 515.773438 C 416.265625 516.246094 417.171875 516.675781 418.105469 517.0625 C 419.035156 517.445312 419.980469 517.785156 420.945312 518.078125 C 421.910156 518.371094 422.882812 518.613281 423.871094 518.8125 C 424.859375 519.007812 425.855469 519.15625 426.855469 519.253906 C 427.859375 519.351562 428.863281 519.402344 429.871094 519.402344 C 430.878906 519.402344 431.882812 519.351562 432.886719 519.253906 C 433.886719 519.15625 434.882812 519.007812 435.871094 518.8125 C 436.859375 518.613281 437.832031 518.371094 438.796875 518.078125 C 439.761719 517.785156 440.707031 517.445312 441.640625 517.0625 C 442.570312 516.675781 443.480469 516.246094 444.367188 515.773438 C 445.253906 515.296875 446.117188 514.78125 446.957031 514.21875 C 447.792969 513.660156 448.601562 513.0625 449.378906 512.421875 C 450.15625 511.785156 450.902344 511.109375 451.613281 510.394531 C 452.328125 509.683594 453.003906 508.9375 453.640625 508.160156 C 454.28125 507.382812 454.878906 506.574219 455.4375 505.734375 C 456 504.898438 456.515625 504.035156 456.992188 503.148438 C 457.464844 502.257812 457.894531 501.351562 458.28125 500.417969 C 458.667969 499.488281 459.003906 498.542969 459.296875 497.578125 C 459.589844 496.613281 459.835938 495.640625 460.03125 494.652344 C 460.226562 493.664062 460.375 492.667969 460.472656 491.667969 C 460.570312 490.664062 460.621094 489.660156 460.621094 488.652344 C 460.621094 487.644531 460.570312 486.640625 460.472656 485.636719 C 460.375 484.636719 460.226562 483.640625 460.03125 482.652344 C 459.835938 481.664062 459.589844 480.691406 459.296875 479.726562 C 459.003906 478.761719 458.667969 477.816406 458.28125 476.886719 C 457.894531 475.953125 457.464844 475.046875 456.992188 474.15625 C 456.515625 473.269531 456 472.40625 455.4375 471.570312 C 454.878906 470.730469 454.28125 469.921875 453.640625 469.144531 C 453.003906 468.367188 452.328125 467.621094 451.613281 466.910156 C 450.902344 466.195312 450.15625 465.519531 449.378906 464.882812 C 448.601562 464.242188 447.792969 463.644531 446.957031 463.085938 C 446.117188 462.523438 445.253906 462.007812 444.367188 461.535156 C 443.480469 461.058594 442.570312 460.628906 441.640625 460.242188 C 440.707031 459.859375 439.761719 459.519531 438.796875 459.226562 C 437.832031 458.933594 436.859375 458.691406 435.871094 458.492188 C 434.882812 458.296875 433.886719 458.148438 432.886719 458.050781 C 431.882812 457.953125 430.878906 457.902344 429.871094 457.902344 Z M 429.871094 498.902344 C 429.199219 498.902344 428.53125 498.835938 427.871094 498.707031 C 427.210938 498.574219 426.570312 498.378906 425.949219 498.121094 C 425.328125 497.863281 424.738281 497.550781 424.175781 497.175781 C 423.617188 496.800781 423.097656 496.375 422.625 495.898438 C 422.148438 495.425781 421.722656 494.90625 421.347656 494.347656 C 420.976562 493.789062 420.660156 493.195312 420.402344 492.574219 C 420.144531 491.953125 419.949219 491.3125 419.816406 490.652344 C 419.6875 489.992188 419.621094 489.324219 419.621094 488.652344 C 419.621094 487.980469 419.6875 487.3125 419.816406 486.652344 C 419.949219 485.992188 420.144531 485.351562 420.402344 484.730469 C 420.660156 484.109375 420.976562 483.515625 421.347656 482.957031 C 421.722656 482.398438 422.148438 481.878906 422.625 481.40625 C 423.097656 480.929688 423.617188 480.503906 424.175781 480.128906 C 424.738281 479.757812 425.328125 479.441406 425.949219 479.183594 C 426.570312 478.925781 427.210938 478.730469 427.871094 478.597656 C 428.53125 478.46875 429.199219 478.402344 429.871094 478.402344 C 430.542969 478.402344 431.210938 478.46875 431.871094 478.597656 C 432.53125 478.730469 433.171875 478.925781 433.792969 479.183594 C 434.414062 479.441406 435.007812 479.757812 435.566406 480.128906 C 436.125 480.503906 436.644531 480.929688 437.121094 481.40625 C 437.59375 481.878906 438.019531 482.398438 438.394531 482.957031 C 438.769531 483.515625 439.082031 484.109375 439.339844 484.730469 C 439.597656 485.351562 439.792969 485.992188 439.925781 486.652344 C 440.054688 487.3125 440.121094 487.980469 440.121094 488.652344 C 440.121094 489.324219 440.054688 489.992188 439.925781 490.652344 C 439.792969 491.3125 439.597656 491.953125 439.339844 492.574219 C 439.082031 493.195312 438.769531 493.789062 438.394531 494.347656 C 438.019531 494.90625 437.59375 495.425781 437.121094 495.898438 C 436.644531 496.375 436.125 496.800781 435.566406 497.175781 C 435.007812 497.550781 434.414062 497.863281 433.792969 498.121094 C 433.171875 498.378906 432.53125 498.574219 431.871094 498.707031 C 431.210938 498.835938 430.542969 498.902344 429.871094 498.902344 Z M 429.871094 498.902344 " fill-opacity="1" fill-rule="nonzero"/></g><g clip-path="url(#e13ef8c8c9)"><g clip-path="url(#df4361564c)"><path fill="#222222" d="M 410.023438 295.476562 L 410.023438 355.054688 L 357.964844 355.054688 L 357.964844 295.476562 Z M 410.023438 295.476562 " fill-opacity="1" fill-rule="nonzero"/></g></g></svg>